<svg xmlns="http://www.w3.org/2000/svg" width="12.542" height="13.368" viewBox="0 0 12.542 13.368">
  <g id="Grupo_19" data-name="Grupo 19" transform="translate(-26.635 -24.857)">
    <path id="Caminho_22" data-name="Caminho 22" d="M32.906,38.225h0a2.153,2.153,0,0,1-2.09-1.65H27.961a1.327,1.327,0,0,1-1.326-1.324,1.3,1.3,0,0,1,.36-.9l.095-.1c.475-.5,1.194-1.253,1.188-3.526a4.577,4.577,0,0,1,3.3-4.395v-.143a1.324,1.324,0,1,1,2.648,0v.141a4.576,4.576,0,0,1,3.3,4.394c0,2.276.72,3.03,1.2,3.529l.1.1a1.288,1.288,0,0,1,.36.907,1.323,1.323,0,0,1-1.324,1.321H34.995A2.154,2.154,0,0,1,32.906,38.225Zm-1.038-1.649a1.151,1.151,0,0,0,1.034.649l0,.5v-.5a1.152,1.152,0,0,0,1.033-.649Zm-3.907-1h9.89a.325.325,0,0,0,.326-.324.3.3,0,0,0-.083-.214l-.1-.1c-.55-.577-1.472-1.543-1.472-4.219a3.573,3.573,0,0,0-2.894-3.509l-.4-.078v-.948a.324.324,0,1,0-.648,0v.951l-.406.078a3.573,3.573,0,0,0-2.9,3.508c.007,2.674-.914,3.64-1.464,4.218l-.092.1a.306.306,0,0,0-.087.215.325.325,0,0,0,.325.327Z" fill="#fff"/>
  </g>
</svg>
