<svg xmlns="http://www.w3.org/2000/svg" width="12.853" height="12.557" viewBox="0 0 12.853 12.557">
  <g id="Grupo_73" data-name="Grupo 73" transform="translate(-118.2 -88.324)">
    <g id="Grupo_28" data-name="Grupo 28" transform="translate(118.2 88.324)">
      <path id="Caminho_46" data-name="Caminho 46" d="M118.585,95.152a.385.385,0,0,1-.385-.385V88.91a.586.586,0,0,1,.586-.586h8.789a.587.587,0,0,1,.587.586v1.165a.385.385,0,1,1-.769,0v-.983h-8.424v5.674A.385.385,0,0,1,118.585,95.152Z" transform="translate(-118.2 -88.324)" fill="#3e3e3e"/>
    </g>
    <path id="Caminho_47" data-name="Caminho 47" d="M131.71,101.166l-1.242-1.242a2.619,2.619,0,1,0-.341.341l1.241,1.242a.242.242,0,1,0,.342-.341Zm-5.316-2.912a2.063,2.063,0,1,1,2.063,2.063A2.065,2.065,0,0,1,126.394,98.254Z" transform="translate(-0.728 -0.696)" fill="#3e3e3e"/>
    <path id="Caminho_48" data-name="Caminho 48" d="M124.3,99.115h-5.509a.586.586,0,0,1-.586-.585V97.416a.385.385,0,0,1,.769,0v.93H124.3a.385.385,0,0,1,0,.769Z" transform="translate(0 -0.829)" fill="#3e3e3e"/>
    <path id="Caminho_49" data-name="Caminho 49" d="M128.746,94.773a.385.385,0,0,1-.385-.384V92.35a.385.385,0,1,1,.769,0v2.039A.384.384,0,0,1,128.746,94.773Z" transform="translate(-0.967 -0.347)" fill="#3e3e3e"/>
    <path id="Caminho_50" data-name="Caminho 50" d="M125.1,93.179h-1.267V91.913a.335.335,0,1,0-.67,0v1.267H121.9a.335.335,0,1,0,0,.67h1.267v1.267a.335.335,0,0,0,.67,0V93.85H125.1a.335.335,0,0,0,0-.67Z" transform="translate(-0.32 -0.31)" fill="#3e3e3e"/>
  </g>
</svg>
