<svg xmlns="http://www.w3.org/2000/svg" width="18.883" height="24.705" viewBox="0 0 18.883 24.705">
  <g id="Grupo_52" data-name="Grupo 52" transform="translate(-124.395 -145.18)">
    <path id="Caminho_39" data-name="Caminho 39" d="M136.483,157.983a.837.837,0,1,1,.837-.837.419.419,0,0,0,.837,0,1.676,1.676,0,0,0-1.257-1.622v-.472a.419.419,0,1,0-.837-.042.289.289,0,0,0,0,.042v.472a1.675,1.675,0,0,0,.419,3.3.837.837,0,1,1-.837.837.419.419,0,0,0-.837-.042.281.281,0,0,0,0,.042,1.678,1.678,0,0,0,1.257,1.622v.472a.419.419,0,0,0,.837.041.268.268,0,0,0,0-.041v-.472a1.675,1.675,0,0,0-.419-3.3Z" transform="translate(0.286 0.259)" fill="#3c2e88"/>
    <path id="Caminho_73" data-name="Caminho 73" d="M136.612,164.985a6.51,6.51,0,1,1,6.51-6.51A6.517,6.517,0,0,1,136.612,164.985Zm0-11.992a5.482,5.482,0,1,0,5.482,5.482A5.487,5.487,0,0,0,136.612,152.992Z" transform="translate(0.157 0.186)" fill="#e8465d"/>
    <path id="Caminho_74" data-name="Caminho 74" d="M124.395,155.748" transform="translate(0 0.29)" fill="#3c2e88"/>
    <path id="Caminho_75" data-name="Caminho 75" d="M127.562,150.8l.522.859a5.006,5.006,0,0,0,2.553,2.094l.064.023.02.007a4,4,0,0,0,.826.206l.058.007a7.164,7.164,0,0,0,3.007-.55s.788.163,1.676.345c1.511.309,2.8.905,3.423-.406a1.649,1.649,0,0,0,.221-1.453.486.486,0,0,0,.035-.074l.286-.783a2.336,2.336,0,0,0-.236-2.065l-1.3-2a2.316,2.316,0,0,0-1.672-1.039l-6.341-.755s-.5-.178-.74.2c-.813,1.312-2.252,4.083-2.368,4.287A.95.95,0,0,0,127.562,150.8Zm2.746-4.5a.51.51,0,0,1,.522-.285l6.11.793.029,0a1.474,1.474,0,0,1,1.036.658l1.3,2a1.484,1.484,0,0,1,.151,1.314l-.132.36a1.767,1.767,0,0,0-.428-.227l-.74-.269.145-.4a.423.423,0,1,0-.794-.29l-.145.4-.582-.212-.306-1.261a.422.422,0,1,0-.821.2l.174.713-.853-.31a.422.422,0,1,0-.3.789l.01,0,3.922,1.43a.9.9,0,0,1-.539,1.72l-3.342-.885a.415.415,0,0,0-.242.008l-.344.116h0a1.182,1.182,0,0,0-.268.091l-.747.252a3.206,3.206,0,0,1-2.087-.016l-.035-.014c-.025-.008-.05-.016-.074-.026a4.157,4.157,0,0,1-2.121-1.739h0l-.452-.8a.542.542,0,0,1-.012-.51Zm0-.33" transform="translate(0.083)" fill="#3c2e88"/>
    <path id="Caminho_76" data-name="Caminho 76" d="M142.912,158.469h-1.027a5.476,5.476,0,0,0-4.129-5.315l.253-1A6.5,6.5,0,0,1,142.912,158.469Z" transform="translate(0.367 0.192)" fill="#e8465d"/>
    <g id="outline" transform="translate(128.136 162.744)">
      <path id="Caminho_77" data-name="Caminho 77" d="M142.806,163.179h-.516a3.88,3.88,0,0,0-4.981,0h-3.223a1.317,1.317,0,0,0-1.326,1.023l-2.929-.891a1.4,1.4,0,0,0-1.725.786,1.152,1.152,0,0,0-.07.393v.02a1.22,1.22,0,0,0,.631,1.054l5.835,3.383a3.552,3.552,0,0,0,2.594.369l5.1-1.224h.609a.322.322,0,0,0,.336-.306v-4.3A.322.322,0,0,0,142.806,163.179Zm-.336,4.3h-.317a.34.34,0,0,0-.085.01l-5.143,1.234a2.829,2.829,0,0,1-2.061-.294l-5.835-3.383a.619.619,0,0,1-.321-.537v-.02a.664.664,0,0,1,.689-.631.767.767,0,0,1,.221.033l3.225.98a1.352,1.352,0,0,0,1.243.757h3.361a.308.308,0,1,0,0-.613h-3.361a.663.663,0,0,1-.652-.46h0a.612.612,0,0,1,.487-.745.747.747,0,0,1,.165-.019h3.361a.356.356,0,0,0,.238-.09l.034-.031a3.153,3.153,0,0,1,4.162,0l.034.031a.354.354,0,0,0,.237.09h.317Z" transform="translate(-128.036 -162.275)" fill="#3c2e88"/>
    </g>
    <path id="Caminho_78" data-name="Caminho 78" d="M138.677,164.395l-.362-.961a5.51,5.51,0,0,0,3.554-5.133H142.9A6.54,6.54,0,0,1,138.677,164.395Z" transform="translate(0.382 0.36)" fill="#e8465d"/>
  </g>
</svg>
