<svg xmlns="http://www.w3.org/2000/svg" width="9.781" height="13.042" viewBox="0 0 9.781 13.042">
  <g id="Grupo_72" data-name="Grupo 72" transform="translate(-64 0)">
    <path id="Caminho_38" data-name="Caminho 38" d="M72.61,13.042h-.07a.887.887,0,0,1-.826-.559.408.408,0,0,0-.757,0,.887.887,0,0,1-.826.559h-.037a.887.887,0,0,1-.826-.559.408.408,0,0,0-.757,0,.887.887,0,0,1-.826.559h-.037a.887.887,0,0,1-.826-.559.408.408,0,0,0-.757,0,.887.887,0,0,1-.826.559h-.07A1.173,1.173,0,0,1,64,11.87V1.172A1.173,1.173,0,0,1,65.172,0h.07a.887.887,0,0,1,.826.559.408.408,0,0,0,.757,0A.887.887,0,0,1,67.649,0h.037a.887.887,0,0,1,.826.559.408.408,0,0,0,.757,0A.887.887,0,0,1,70.095,0h.037a.887.887,0,0,1,.826.559.408.408,0,0,0,.757,0A.887.887,0,0,1,72.54,0h.07a1.173,1.173,0,0,1,1.172,1.172v10.7A1.173,1.173,0,0,1,72.61,13.042Zm-1.274-1.63a1.218,1.218,0,0,1,1.135.767.075.075,0,0,0,.069.048h.07a.357.357,0,0,0,.357-.357V1.172A.357.357,0,0,0,72.61.815h-.07a.075.075,0,0,0-.069.048,1.223,1.223,0,0,1-2.269,0,.075.075,0,0,0-.069-.048h-.037a.075.075,0,0,0-.069.048,1.223,1.223,0,0,1-2.269,0,.075.075,0,0,0-.069-.048h-.037a.075.075,0,0,0-.069.048,1.223,1.223,0,0,1-2.269,0,.075.075,0,0,0-.069-.048h-.07a.357.357,0,0,0-.357.357v10.7a.357.357,0,0,0,.357.357h.07a.075.075,0,0,0,.069-.048,1.223,1.223,0,0,1,2.269,0,.075.075,0,0,0,.069.048h.037a.075.075,0,0,0,.069-.048,1.223,1.223,0,0,1,2.269,0,.075.075,0,0,0,.069.048h.037a.075.075,0,0,0,.069-.048A1.218,1.218,0,0,1,71.336,11.412Z" transform="translate(0)" fill="#3e3e3e"/>
    <path id="Caminho_39" data-name="Caminho 39" d="M193.63,115.26a.815.815,0,1,1,.815-.815.408.408,0,0,0,.815,0,1.633,1.633,0,0,0-1.223-1.579v-.459a.408.408,0,1,0-.815,0v.459a1.63,1.63,0,0,0,.408,3.209.815.815,0,1,1-.815.815.408.408,0,1,0-.815,0,1.633,1.633,0,0,0,1.223,1.579v.459a.408.408,0,1,0,.815,0v-.459a1.63,1.63,0,0,0-.408-3.209Z" transform="translate(-124.74 -109.147)" fill="#3e3e3e"/>
  </g>
</svg>
