<svg xmlns="http://www.w3.org/2000/svg" width="12.979" height="8.653" viewBox="0 0 12.979 8.653">
  <path id="eye-regular" d="M6.49,65.8a2.5,2.5,0,0,0-.7.113,1.248,1.248,0,0,1,.163.608,1.262,1.262,0,0,1-1.262,1.262,1.248,1.248,0,0,1-.608-.163A2.517,2.517,0,1,0,6.49,65.8ZM12.9,68A7.227,7.227,0,0,0,6.49,64,7.228,7.228,0,0,0,.079,68a.729.729,0,0,0,0,.658,7.227,7.227,0,0,0,6.411,4,7.228,7.228,0,0,0,6.411-4,.729.729,0,0,0,0-.658ZM6.49,71.571a6.13,6.13,0,0,1-5.361-3.245A6.129,6.129,0,0,1,6.49,65.082a6.129,6.129,0,0,1,5.361,3.245A6.129,6.129,0,0,1,6.49,71.571Z" transform="translate(-0.001 -64)" fill="#707070"/>
</svg>
