<svg xmlns="http://www.w3.org/2000/svg" width="14.141" height="11.312" viewBox="0 0 14.141 11.312">
  <path id="eye-slash-regular" d="M14,10.406.786.077a.354.354,0,0,0-.5.055L.068.408a.354.354,0,0,0,.055.5L13.335,11.234a.354.354,0,0,0,.5-.055l.221-.276a.354.354,0,0,0-.055-.5Zm-7.45-7.17L9.526,5.564A2.464,2.464,0,0,0,6.548,3.236Zm1.026,4.84L4.6,5.747A2.468,2.468,0,0,0,7.061,8.13a2.5,2.5,0,0,0,.513-.054Zm-.513-5.6a6.01,6.01,0,0,1,5.257,3.182,6.309,6.309,0,0,1-.972,1.33l.834.652a7.373,7.373,0,0,0,1.169-1.659.715.715,0,0,0,0-.645,7.089,7.089,0,0,0-6.287-3.92,6.821,6.821,0,0,0-2.312.416l1.025.8A5.8,5.8,0,0,1,7.061,2.474Zm0,6.363A6.011,6.011,0,0,1,1.8,5.656a6.307,6.307,0,0,1,.973-1.33l-.834-.652A7.371,7.371,0,0,0,.775,5.333a.715.715,0,0,0,0,.645A7.086,7.086,0,0,0,7.061,9.9a6.848,6.848,0,0,0,2.312-.416l-1.025-.8A5.811,5.811,0,0,1,7.061,8.837Z" transform="translate(0.01 0.001)" fill="#717171"/>
</svg>
