<svg xmlns="http://www.w3.org/2000/svg" width="20.963" height="20.963" viewBox="0 0 20.963 20.963">
  <g id="Grupo_23" data-name="Grupo 23" transform="translate(-56.625 -13.188)">
    <path id="Caminho_36" data-name="Caminho 36" d="M73.825,34.151h-1.98a2.6,2.6,0,0,1-2.595-2.595V15.783a2.6,2.6,0,0,1,2.595-2.595h1.98a2.6,2.6,0,0,1,2.595,2.595V31.556A2.6,2.6,0,0,1,73.825,34.151Zm-1.98-19.324a.957.957,0,0,0-.956.956V31.556a.957.957,0,0,0,.956.956h1.98a.957.957,0,0,0,.956-.956V15.783a.957.957,0,0,0-.956-.956Z" transform="translate(-5.728)" fill="#e8465d"/>
    <path id="Caminho_37" data-name="Caminho 37" d="M74.993,32.983H59.22a2.6,2.6,0,0,1-2.595-2.595v-1.98a2.6,2.6,0,0,1,2.595-2.595H74.993a2.6,2.6,0,0,1,2.595,2.595v1.98A2.6,2.6,0,0,1,74.993,32.983ZM59.22,27.452a.957.957,0,0,0-.956.956v1.98a.957.957,0,0,0,.956.956H74.993a.957.957,0,0,0,.956-.956v-1.98a.957.957,0,0,0-.956-.956Z" transform="translate(0 -5.728)" fill="#3c2e88"/>
    <rect id="Ret창ngulo_35" data-name="Ret창ngulo 35" width="1.639" height="5.39" transform="translate(63.521 24.286)" fill="#e8465d"/>
    <rect id="Ret창ngulo_36" data-name="Ret창ngulo 36" width="1.639" height="5.39" transform="translate(69.052 18.209)" fill="#e8465d"/>
  </g>
</svg>
