<svg xmlns="http://www.w3.org/2000/svg" width="13.681" height="13.681" viewBox="0 0 13.681 13.681">
  <g id="settings" transform="translate(-66.609 -22.531)">
    <path id="Caminho_46" data-name="Caminho 46" d="M73.878,36.212H73.02a1.259,1.259,0,0,1-1.26-1.26v-.289a5.693,5.693,0,0,1-.858-.356l-.205.205a1.262,1.262,0,0,1-1.781,0h0l-.607-.607a1.262,1.262,0,0,1,0-1.781h0l.205-.205a5.694,5.694,0,0,1-.356-.858h-.289a1.259,1.259,0,0,1-1.26-1.26v-.858a1.259,1.259,0,0,1,1.26-1.26h.289a5.617,5.617,0,0,1,.356-.858l-.205-.205a1.262,1.262,0,0,1,0-1.781h0l.607-.607a1.258,1.258,0,0,1,1.781,0h0l.205.205a5.692,5.692,0,0,1,.858-.356v-.289a1.259,1.259,0,0,1,1.26-1.26h.858a1.259,1.259,0,0,1,1.26,1.26v.289a5.616,5.616,0,0,1,.858.356l.205-.205a1.258,1.258,0,0,1,1.781,0h0l.607.607a1.258,1.258,0,0,1,0,1.781h0l-.205.205a5.614,5.614,0,0,1,.356.858h.289a1.259,1.259,0,0,1,1.26,1.26V29.8a1.259,1.259,0,0,1-1.26,1.26h-.289a5.691,5.691,0,0,1-.356.858l.205.205a1.258,1.258,0,0,1,0,1.781h0l-.607.607a1.26,1.26,0,0,1-1.781,0h0L76,34.307a5.617,5.617,0,0,1-.858.356v.289A1.259,1.259,0,0,1,73.878,36.212Zm-2.841-2.747a4.728,4.728,0,0,0,1.225.507.4.4,0,0,1,.3.389v.591a.458.458,0,0,0,.458.458h.858a.458.458,0,0,0,.458-.458v-.591a.4.4,0,0,1,.3-.389,4.728,4.728,0,0,0,1.225-.507.4.4,0,0,1,.487.06l.42.42a.459.459,0,0,0,.647,0h0l.607-.607a.455.455,0,0,0,0-.647l-.42-.42a.4.4,0,0,1-.06-.487,4.728,4.728,0,0,0,.507-1.225.4.4,0,0,1,.389-.3h.591a.458.458,0,0,0,.458-.458v-.858a.458.458,0,0,0-.458-.458h-.591a.4.4,0,0,1-.389-.3,4.728,4.728,0,0,0-.507-1.225.4.4,0,0,1,.062-.487l.418-.42a.455.455,0,0,0,0-.647h0l-.607-.607a.455.455,0,0,0-.647,0h0l-.42.418a.4.4,0,0,1-.487.062,4.742,4.742,0,0,0-1.223-.507.4.4,0,0,1-.3-.389v-.591a.458.458,0,0,0-.458-.458H73.02a.458.458,0,0,0-.458.458v.591a.4.4,0,0,1-.3.389,4.728,4.728,0,0,0-1.225.507.4.4,0,0,1-.487-.062l-.42-.418a.455.455,0,0,0-.647,0h0l-.607.607a.459.459,0,0,0,0,.647l.42.42a.4.4,0,0,1,.06.487,4.728,4.728,0,0,0-.507,1.225.4.4,0,0,1-.389.3h-.591a.458.458,0,0,0-.458.458V29.8a.458.458,0,0,0,.458.458h.591a.4.4,0,0,1,.389.3,4.728,4.728,0,0,0,.507,1.225.4.4,0,0,1-.062.487l-.418.42a.459.459,0,0,0,0,.647h0l.607.607a.459.459,0,0,0,.647,0h0l.42-.42a.4.4,0,0,1,.487-.06Z" transform="translate(0 0)" fill="#3e3e3e"/>
    <path id="Caminho_47" data-name="Caminho 47" d="M71.712,30.611a2.978,2.978,0,1,1,2.978-2.978h0A2.983,2.983,0,0,1,71.712,30.611Zm0-5.153a2.176,2.176,0,1,0,2.176,2.176h0a2.178,2.178,0,0,0-2.176-2.176Z" transform="translate(1.738 1.738)" fill="#3e3e3e"/>
  </g>
</svg>
