<svg xmlns="http://www.w3.org/2000/svg" width="111.296" height="24.316" viewBox="0 0 111.296 24.316">
  <g id="Grupo_20" data-name="Grupo 20" transform="translate(-85.446 -34.914)">
    <path id="Caminho_24" data-name="Caminho 24" d="M98.949,52.468a3.111,3.111,0,0,0,.416-.026A3.883,3.883,0,0,1,98.949,52.468Z" transform="translate(3.195 4.147)" fill="#e23d5a"/>
    <path id="Caminho_25" data-name="Caminho 25" d="M114.711,42.909,111.4,37.774a6.22,6.22,0,0,0-8.593-1.86L99.016,38.36l2.415,1.556,2.8-1.8a3.607,3.607,0,0,1,4.972,1.073l3.31,5.142a3.6,3.6,0,0,1-1.077,4.974l-4.511,2.909-2.693,4.171a6.159,6.159,0,0,1-3.908,2.706,6.669,6.669,0,0,1-.748.116,6.139,6.139,0,0,0,2.817-.966L112.854,51.5a6.209,6.209,0,0,0,1.861-8.582l0,0Zm-15.7,13.7a3.9,3.9,0,0,1-.416-.026A3.124,3.124,0,0,0,99.007,56.613Z" transform="translate(3.11 0.002)" fill="#fff"/>
    <path id="Caminho_26" data-name="Caminho 26" d="M108.667,51.251l-2.693,4.171a6.159,6.159,0,0,1-3.908,2.706,6.673,6.673,0,0,1-.748.117c-.082.007-.163.012-.247.017s-.192.009-.289.009h-.042c-.1,0-.192,0-.289-.009s-.166-.01-.247-.017a6.607,6.607,0,0,1-.747-.117,6.165,6.165,0,0,1-3.911-2.7L92.85,51.256l-.618-.961a6.206,6.206,0,0,1,1.846-8.581l.009-.006,4.256-2.745,2.415,1.556L95.505,43.9a3.6,3.6,0,0,0-1.075,4.972l3.308,5.134a3.6,3.6,0,0,0,2.587,1.621,3.129,3.129,0,0,0,.417.026h.026a3.129,3.129,0,0,0,.417-.026,3.56,3.56,0,0,0,1.526-.549Z" transform="translate(1.37 0.958)" fill="#fff"/>
    <path id="Caminho_27" data-name="Caminho 27" d="M110.655,51.246l-.618.961-5.952,3.836a3.536,3.536,0,0,1-1.526.548,3.6,3.6,0,0,0,2.588-1.625l3.312-5.138a3.6,3.6,0,0,0-1.075-4.971l-5.253-3.385-2.415-1.556-2.795-1.8a3.6,3.6,0,0,0-4.972,1.073l-3.31,5.142A3.6,3.6,0,0,0,89.71,49.3l0,0,4.511,2.909,2.692,4.171a6.164,6.164,0,0,0,3.91,2.706,6.6,6.6,0,0,0,.747.116,6.139,6.139,0,0,1-2.817-.966L88.3,51.5a6.212,6.212,0,0,1-1.86-8.586h0l3.31-5.134a6.218,6.218,0,0,1,8.593-1.86l3.793,2.446,2.415,1.556,4.256,2.744a6.206,6.206,0,0,1,1.864,8.576l-.007.012Z" transform="translate(0 0.002)" fill="#e8465d"/>
    <path id="Caminho_28" data-name="Caminho 28" d="M127.622,40.027h2.765L125.405,52.56a1.808,1.808,0,0,1-1.679,1.139h0a1.809,1.809,0,0,1-1.66-1.1l-5.41-12.574h2.817l4.219,10.5Z" transform="translate(7.385 1.21)" fill="#fff"/>
    <path id="Caminho_29" data-name="Caminho 29" d="M129.927,37.823a1.6,1.6,0,0,1-.506-1.195,1.705,1.705,0,0,1,1.7-1.714h.017a1.64,1.64,0,0,1,1.195.507,1.683,1.683,0,0,1,.493,1.207,1.636,1.636,0,0,1-.493,1.195,1.684,1.684,0,0,1-1.195.493A1.647,1.647,0,0,1,129.927,37.823ZM129.8,54.909V41.237h2.649V54.909Z" transform="translate(10.405 0)" fill="#fff"/>
    <path id="Caminho_30" data-name="Caminho 30" d="M144.781,40.028h2.765l-4.99,12.533a1.808,1.808,0,0,1-1.679,1.139h0a1.806,1.806,0,0,1-1.658-1.1l-5.411-12.579h2.821l4.219,10.5Z" transform="translate(11.443 1.209)" fill="#fff"/>
    <path id="Caminho_31" data-name="Caminho 31" d="M159.39,47.739H148.614q.527,3.8,5.337,3.791a11.17,11.17,0,0,0,3.168-.454,9.756,9.756,0,0,0,.96-.365c.169-.077.533-.232.549-.232V53a11.664,11.664,0,0,1-5,1.089,7.924,7.924,0,0,1-5.738-2.078,7.031,7.031,0,0,1-1.976-5.024,7.173,7.173,0,0,1,3.258-6.257,6.634,6.634,0,0,1,3.558-.974,6.459,6.459,0,0,1,4.83,1.986,7.164,7.164,0,0,1,1.908,5.143A4.537,4.537,0,0,1,159.39,47.739Zm-10.723-2.273h8.361c-.364-2.115-1.948-3.22-4.193-3.22A3.832,3.832,0,0,0,148.667,45.466Z" transform="translate(14.307 1.145)" fill="#fff"/>
    <path id="Caminho_32" data-name="Caminho 32" d="M158.354,51.724l1.259-2.012a9.5,9.5,0,0,0,2.325,1.48,5.949,5.949,0,0,0,2.4.467c1.934,0,3.142-.7,3.142-1.805.064-.623-.481-1.065-1.052-1.35a9.088,9.088,0,0,0-1.537-.492c-.207-.053-.506-.117-.908-.209s-.753-.168-1-.234-.571-.142-.947-.246a7.336,7.336,0,0,1-1.7-.688,3.056,3.056,0,0,1-1.193-1.092,2.768,2.768,0,0,1-.469-1.687,3.5,3.5,0,0,1,1.537-3,6.521,6.521,0,0,1,3.92-1.1,9.037,9.037,0,0,1,5.649,1.908l-1.039,1.976a13.549,13.549,0,0,0-2.3-1.156,6.107,6.107,0,0,0-2.142-.362,4.507,4.507,0,0,0-2.142.455,1.333,1.333,0,0,0-.845,1.143.889.889,0,0,0,.439.805,2.879,2.879,0,0,0,1.052.481q.41.1.623.156c.142.038.39.078.714.142s.549.1.65.13a10.382,10.382,0,0,1,3.79,1.39,3.328,3.328,0,0,1,1.537,2.946,3.709,3.709,0,0,1-1.537,3.129,6.672,6.672,0,0,1-4.129,1.182A8.408,8.408,0,0,1,158.354,51.724Z" transform="translate(17.251 1.145)" fill="#fff"/>
    <path id="Caminho_33" data-name="Caminho 33" d="M169.326,36.721h2.622V40.81h4.077v2.195h-4.077v6.932a6.106,6.106,0,0,0,.066,1.144,1.355,1.355,0,0,0,.4.878c.312.39.988.559,2.026.559a10.648,10.648,0,0,0,2.455-.273v2.22a14.567,14.567,0,0,1-3.026.34,4.589,4.589,0,0,1-3.193-.947,2.936,2.936,0,0,1-.948-1.311,4.927,4.927,0,0,1-.351-1.481,11.134,11.134,0,0,1-.051-1.285V36.721Z" transform="translate(19.847 0.427)" fill="#fff"/>
  </g>
</svg>
