<svg xmlns="http://www.w3.org/2000/svg" width="196.945" height="43.026" viewBox="0 0 196.945 43.026">
  <g id="Grupo_59" data-name="Grupo 59" transform="translate(-0.001 -0.169)">
    <path id="Caminho_88" data-name="Caminho 88" d="M13.5,17.744a5.508,5.508,0,0,0,.735-.048A6.382,6.382,0,0,1,13.5,17.744Z" transform="translate(16.045 20.827)" fill="#e23d5a"/>
    <path id="Caminho_89" data-name="Caminho 89" d="M41.673,14.307,35.81,5.221A11.01,11.01,0,0,0,20.6,1.93L13.9,6.258,18.17,9.011l4.959-3.191a6.379,6.379,0,0,1,8.8,1.9l5.858,9.1a6.368,6.368,0,0,1-1.906,8.8L27.9,30.765l-4.764,7.381a10.91,10.91,0,0,1-6.915,4.79,12.327,12.327,0,0,1-1.324.206,10.866,10.866,0,0,0,4.985-1.711L38.386,29.5a10.991,10.991,0,0,0,3.293-15.189l-.007-.009ZM13.881,38.56a6.382,6.382,0,0,1-.735-.048A5.507,5.507,0,0,0,13.881,38.56Z" transform="translate(15.62 0.012)" fill="#3c2e88"/>
    <path id="Caminho_90" data-name="Caminho 90" d="M36.632,25.961l-4.764,7.383a10.907,10.907,0,0,1-6.915,4.788,11.8,11.8,0,0,1-1.324.206c-.144.013-.289.024-.438.031s-.339.015-.512.015h-.074c-.173,0-.339,0-.512-.015s-.293-.018-.438-.031a11.8,11.8,0,0,1-1.324-.206,10.924,10.924,0,0,1-6.922-4.779L8.646,25.972l-1.094-1.7A10.985,10.985,0,0,1,10.817,9.085l.018-.011,7.532-4.856L22.64,6.971l-9.3,5.989a6.37,6.37,0,0,0-1.9,8.8L17.3,30.843a6.368,6.368,0,0,0,4.578,2.869,5.541,5.541,0,0,0,.737.048h.046a5.541,5.541,0,0,0,.737-.048,6.243,6.243,0,0,0,2.7-.972Z" transform="translate(6.882 4.811)" fill="#3c2e88"/>
    <path id="Caminho_91" data-name="Caminho 91" d="M44.611,29.061l-1.1,1.7-10.53,6.788a6.289,6.289,0,0,1-2.7.972,6.357,6.357,0,0,0,4.578-2.878l5.862-9.092a6.369,6.369,0,0,0-1.9-8.8l-9.3-5.989L25.253,9.012,20.308,5.821a6.368,6.368,0,0,0-8.8,1.9l-5.858,9.1a6.366,6.366,0,0,0,1.893,8.8l.007,0,7.983,5.147L20.3,38.146a10.92,10.92,0,0,0,6.917,4.79,12.327,12.327,0,0,0,1.324.206,10.866,10.866,0,0,1-4.985-1.711L5.044,29.5a10.994,10.994,0,0,1-3.291-15.2l0,0L7.614,5.221A11.007,11.007,0,0,1,22.82,1.93l6.711,4.328,4.274,2.753,7.53,4.856a10.982,10.982,0,0,1,3.3,15.178l-.013.02Z" transform="translate(0 0.011)" fill="#e8465d"/>
    <path id="Caminho_92" data-name="Caminho 92" d="M50.618,5.281h4.893L46.694,27.462a3.2,3.2,0,0,1-2.972,2.013h0a3.2,3.2,0,0,1-2.937-1.943L31.21,5.281H36.2l7.466,18.587Z" transform="translate(37.085 6.075)" fill="#3c2e88"/>
    <path id="Caminho_93" data-name="Caminho 93" d="M44.871,5.314a2.831,2.831,0,0,1-.9-2.112,3.017,3.017,0,0,1,3-3.033h.031a2.891,2.891,0,0,1,2.114.9A3,3,0,0,1,50,3.2a2.89,2.89,0,0,1-.873,2.112,2.971,2.971,0,0,1-2.114.873A2.915,2.915,0,0,1,44.871,5.314Zm-.228,30.236V11.356h4.687V35.549Z" transform="translate(52.254)" fill="#3c2e88"/>
    <path id="Caminho_94" data-name="Caminho 94" d="M67.782,5.285h4.893l-8.83,22.181a3.2,3.2,0,0,1-2.972,2.013h0a3.2,3.2,0,0,1-2.934-1.943L48.361,5.278h4.994l7.464,18.587Z" transform="translate(57.465 6.071)" fill="#3c2e88"/>
    <path id="Caminho_95" data-name="Caminho 95" d="M84.317,19.138H65.248q.932,6.719,9.442,6.709a19.666,19.666,0,0,0,5.606-.8A16.761,16.761,0,0,0,82,24.4c.3-.136.943-.411.972-.411v4.455a20.615,20.615,0,0,1-8.852,1.928c-4.32,0-7.9-1.376-10.156-3.674A12.458,12.458,0,0,1,60.467,17.8,12.692,12.692,0,0,1,66.233,6.731a11.737,11.737,0,0,1,6.3-1.722,11.421,11.421,0,0,1,8.547,3.514,12.667,12.667,0,0,1,3.374,9.1A7.833,7.833,0,0,1,84.317,19.138Zm-18.975-4.02h14.8c-.643-3.744-3.447-5.7-7.42-5.7S66.076,11.374,65.343,15.119Z" transform="translate(71.851 5.749)" fill="#3c2e88"/>
    <path id="Caminho_96" data-name="Caminho 96" d="M72.909,26.192l2.228-3.563a16.74,16.74,0,0,0,4.114,2.619,10.526,10.526,0,0,0,4.25.827c3.422,0,5.56-1.241,5.56-3.193.114-1.1-.851-1.884-1.862-2.39a15.953,15.953,0,0,0-2.72-.873c-.365-.092-.895-.208-1.606-.368s-1.333-.3-1.77-.414-1.009-.254-1.676-.435a13.126,13.126,0,0,1-3.011-1.219,5.417,5.417,0,0,1-2.112-1.93,4.923,4.923,0,0,1-.827-2.987A6.189,6.189,0,0,1,76.2,6.961a11.549,11.549,0,0,1,6.937-1.952,15.978,15.978,0,0,1,10,3.377l-1.838,3.5a24.057,24.057,0,0,0-4.066-2.046,10.757,10.757,0,0,0-3.79-.641,8,8,0,0,0-3.79.8A2.361,2.361,0,0,0,78.15,12.02a1.572,1.572,0,0,0,.777,1.425,5.06,5.06,0,0,0,1.862.851q.725.174,1.1.276c.252.068.689.138,1.263.252s.972.184,1.149.23a18.449,18.449,0,0,1,6.709,2.46,5.89,5.89,0,0,1,2.72,5.215,6.566,6.566,0,0,1-2.72,5.536,11.825,11.825,0,0,1-7.307,2.09A14.878,14.878,0,0,1,72.909,26.192Z" transform="translate(86.635 5.751)" fill="#3c2e88"/>
    <path id="Caminho_97" data-name="Caminho 97" d="M83.883,1.978h4.639V9.214h7.215V13.1H88.522V25.368a10.782,10.782,0,0,0,.116,2.022,2.388,2.388,0,0,0,.711,1.554c.551.689,1.748.989,3.582.989a18.828,18.828,0,0,0,4.344-.481V33.38a25.886,25.886,0,0,1-5.353.6c-2.665,0-4.5-.619-5.652-1.676a5.217,5.217,0,0,1-1.678-2.32,8.783,8.783,0,0,1-.619-2.622,19.238,19.238,0,0,1-.09-2.274V1.978Z" transform="translate(99.671 2.141)" fill="#3c2e88"/>
  </g>
</svg>
