<svg xmlns="http://www.w3.org/2000/svg" width="11.859" height="11.859" viewBox="0 0 11.859 11.859">
  <g id="_19-Cash_back" data-name="19-Cash back" transform="translate(-3.918)">
    <g id="filled" transform="translate(3.918)">
      <path id="Caminho_40" data-name="Caminho 40" d="M153.93,47.859A5.93,5.93,0,1,0,148,41.93,5.93,5.93,0,0,0,153.93,47.859Zm0-10.712a4.782,4.782,0,1,1-4.782,4.782A4.782,4.782,0,0,1,153.93,37.148Z" transform="translate(-148 -36)" fill="#3e3e3e"/>
      <path id="Caminho_41" data-name="Caminho 41" d="M230.487,74.121h-1.148a.191.191,0,0,1-.191-.191.574.574,0,1,0-1.148,0,1.34,1.34,0,0,0,1.339,1.339h.191v.956a.574.574,0,0,0,1.148,0v-.967a1.722,1.722,0,0,0-.191-3.432h-.765a.574.574,0,1,1,0-1.148h1.148a.191.191,0,0,1,.191.191.574.574,0,1,0,1.148,0,1.341,1.341,0,0,0-1.339-1.339h-.191v-.956a.574.574,0,1,0-1.148,0v.967a1.722,1.722,0,0,0,.191,3.432h.765a.574.574,0,1,1,0,1.148Z" transform="translate(-224.174 -66.47)" fill="#3e3e3e"/>
    </g>
  </g>
</svg>
