<svg id="Grupo_47" data-name="Grupo 47" xmlns="http://www.w3.org/2000/svg" width="16.475" height="10.165" viewBox="0 0 16.475 10.165">
  <path id="Caminho_63" data-name="Caminho 63" d="M62.1,22.819h-3.08l-3.8-1.283a1.563,1.563,0,0,0-1.375.183l-2.288,1.523a.237.237,0,0,0-.073.319.219.219,0,0,0,.307.076l.007,0,2.288-1.522a1.131,1.131,0,0,1,1-.133l3.832,1.294a.221.221,0,0,0,.069.011H61.88v3.891H60.218a.223.223,0,0,0-.2.125,2.271,2.271,0,0,1-1.088.973V27.228a1.962,1.962,0,0,0,.984-.914A.236.236,0,0,0,59.833,26a.219.219,0,0,0-.3.086l-.007.015a1.839,1.839,0,0,1-1.487.88A1.874,1.874,0,0,1,56.2,25.912a.223.223,0,0,0-.209-.148h-2.1a.619.619,0,0,1-.031-1.237h2.536a.232.232,0,0,0,0-.463H53.888a1.084,1.084,0,0,0,0,2.164h1.96a2.378,2.378,0,0,0,2.638,1.15v3.435a.336.336,0,0,1-.33.342H46.627a.336.336,0,0,1-.33-.342V24.869a.336.336,0,0,1,.33-.342h5.7a.232.232,0,0,0,0-.463h-5.7a.793.793,0,0,0-.777.805v5.944a.792.792,0,0,0,.777.805H58.156a.792.792,0,0,0,.777-.805v-2.05a2.7,2.7,0,0,0,1.411-1.126H62.1a.228.228,0,0,0,.223-.232h0V23.05A.228.228,0,0,0,62.1,22.819Z" transform="translate(-45.85 -21.452)" fill="#3e3e3e"/>
  <path id="Caminho_64" data-name="Caminho 64" d="M73.6,116.83v-2.442a1.22,1.22,0,0,0,.949-.985h3.814a.232.232,0,0,0,0-.463H74.352a.228.228,0,0,0-.223.232.762.762,0,0,1-.745.772.228.228,0,0,0-.223.232v2.862a.228.228,0,0,0,.223.232.762.762,0,0,1,.745.775.228.228,0,0,0,.223.232h8.557a.228.228,0,0,0,.223-.232h0a.762.762,0,0,1,.747-.775.228.228,0,0,0,.223-.232v-1.046a.224.224,0,1,0-.447-.019q0,.01,0,.019v.837a1.22,1.22,0,0,0-.949.985H74.553A1.219,1.219,0,0,0,73.6,116.83Z" transform="translate(-72.089 -109.221)" fill="#3e3e3e"/>
  <path id="Caminho_65" data-name="Caminho 65" d="M187.986,139.92h.537a.232.232,0,0,0,0-.463h-.176v-.149a.224.224,0,1,0-.447,0v.155a.723.723,0,0,0-.613.811.712.712,0,0,0,.7.641h.277a.266.266,0,0,1,0,.531h-.537a.232.232,0,0,0-.019.463h.194v.149a.224.224,0,1,0,.447,0V141.9a.723.723,0,0,0,.613-.811.712.712,0,0,0-.7-.641h-.277a.259.259,0,0,1-.279-.239.263.263,0,0,1,.23-.29.248.248,0,0,1,.049,0Z" transform="translate(-181.738 -134.294)" fill="#3e3e3e"/>
  <path id="Caminho_66" data-name="Caminho 66" d="M144.315,172.969a.236.236,0,0,0-.065.163.255.255,0,0,0,0,.046.232.232,0,0,0,.013.041.186.186,0,0,0,.021.041.209.209,0,0,0,.027.035.2.2,0,0,0,.034.029.22.22,0,0,0,.081.035.2.2,0,0,0,.044,0,.22.22,0,0,0,.157-.067.241.241,0,0,0,.028-.035.3.3,0,0,0,.021-.041.266.266,0,0,0,.012-.041.2.2,0,0,0,0-.046.228.228,0,0,0-.225-.23.22.22,0,0,0-.157.068Z" transform="translate(-140.392 -166.744)" fill="#3e3e3e"/>
  <path id="Caminho_67" data-name="Caminho 67" d="M269.8,173.314a.264.264,0,0,0,.028.035.217.217,0,0,0,.314,0,.227.227,0,0,0,.029-.037.184.184,0,0,0,.021-.041.232.232,0,0,0,.013-.041.254.254,0,0,0,0-.045.224.224,0,1,0-.447,0,.252.252,0,0,0,0,.045.233.233,0,0,0,.013.041A.262.262,0,0,0,269.8,173.314Z" transform="translate(-260.982 -166.797)" fill="#3e3e3e"/>
</svg>
