<svg id="Grupo_de_máscara_1" data-name="Grupo de máscara 1" xmlns="http://www.w3.org/2000/svg" width="6.746" height="7.513" viewBox="0 0 6.746 7.513">
  <g id="refresh" transform="translate(0 0)">
    <g id="Grupo_23" data-name="Grupo 23" transform="translate(0.116 2.696)">
      <g id="Grupo_22" data-name="Grupo 22">
        <path id="Caminho_35" data-name="Caminho 35" d="M86.137,52.835a.239.239,0,0,0-.313.122c-.048.122-.1.243-.145.385a.262.262,0,0,0,.169.289h.072a.244.244,0,0,0,.217-.145,1.379,1.379,0,0,1,.122-.337A.239.239,0,0,0,86.137,52.835Z" transform="translate(-85.675 -52.815)" fill="#aaa"/>
      </g>
    </g>
    <g id="Grupo_25" data-name="Grupo 25" transform="translate(0 4.041)">
      <g id="Grupo_24" data-name="Grupo 24">
        <path id="Caminho_36" data-name="Caminho 36" d="M86.063,55.82a2.419,2.419,0,0,1-.1-.578.282.282,0,0,0-.265-.217.262.262,0,0,0-.217.265,3.266,3.266,0,0,0,.1.7.292.292,0,0,0,.243.169c.024,0,.048,0,.072-.048A.249.249,0,0,0,86.063,55.82Z" transform="translate(-85.485 -55.025)" fill="#aaa"/>
      </g>
    </g>
    <g id="Grupo_27" data-name="Grupo 27" transform="translate(0.491 5.592)">
      <g id="Grupo_26" data-name="Grupo 26">
        <path id="Caminho_37" data-name="Caminho 37" d="M87.414,58.407a2.774,2.774,0,0,1-.674-.723.244.244,0,1,0-.41.265,3.777,3.777,0,0,0,.795.844.341.341,0,0,0,.145.048.221.221,0,0,0,.193-.1A.26.26,0,0,0,87.414,58.407Z" transform="translate(-86.291 -57.573)" fill="#aaa"/>
      </g>
    </g>
    <g id="Grupo_29" data-name="Grupo 29" transform="translate(2.205 6.873)">
      <g id="Grupo_28" data-name="Grupo 28">
        <path id="Caminho_38" data-name="Caminho 38" d="M91.455,59.858a.244.244,0,0,0-.3-.173l-.015,0a2.957,2.957,0,0,1-1.711,0,.252.252,0,1,0-.145.482h0a3.393,3.393,0,0,0,.988.145,3.7,3.7,0,0,0,1.012-.145.237.237,0,0,0,.178-.282A.271.271,0,0,0,91.455,59.858Z" transform="translate(-89.107 -59.676)" fill="#aaa"/>
      </g>
    </g>
    <path id="Caminho_35-2" data-name="Caminho 35" d="M93.678,51.247a3.407,3.407,0,0,0-1.807-1.855,3.372,3.372,0,0,0-1.206-.264l.411-.316a.236.236,0,0,0,.054-.329l-.005-.007a.259.259,0,0,0-.337-.048L89.9,49.1a.236.236,0,0,0-.055.329l.007.009.7.913a.221.221,0,0,0,.193.1.185.185,0,0,0,.122-.024.236.236,0,0,0,.055-.329l-.007-.009-.362-.473a2.9,2.9,0,0,1,2.671,1.824,2.832,2.832,0,0,1-.024,2.217,2.866,2.866,0,0,1-.867,1.133.236.236,0,0,0-.055.329l.007.009a.221.221,0,0,0,.193.1.2.2,0,0,0,.169-.072,3.259,3.259,0,0,0,1.012-1.325A3.409,3.409,0,0,0,93.678,51.247Z" transform="translate(-87.173 -48.385)" fill="#aaa"/>
  </g>
</svg>
