<svg xmlns="http://www.w3.org/2000/svg" width="15.076" height="13.191" viewBox="0 0 15.076 13.191">
  <path id="bars-solid" d="M.538,62.423h14a.538.538,0,0,0,.538-.538V60.538A.538.538,0,0,0,14.537,60h-14A.538.538,0,0,0,0,60.538v1.346A.538.538,0,0,0,.538,62.423Zm0,5.384h14a.538.538,0,0,0,.538-.538V65.923a.538.538,0,0,0-.538-.538h-14A.538.538,0,0,0,0,65.923v1.346A.538.538,0,0,0,.538,67.807Zm0,5.384h14a.538.538,0,0,0,.538-.538V71.307a.538.538,0,0,0-.538-.538h-14A.538.538,0,0,0,0,71.307v1.346A.538.538,0,0,0,.538,73.191Z" transform="translate(0 -60)" fill="#fff"/>
</svg>
