<svg xmlns="http://www.w3.org/2000/svg" width="13.082" height="13.239" viewBox="0 0 13.082 13.239">
  <path id="Caminho_101" data-name="Caminho 101" d="M52.792,59.013H41.36a.831.831,0,0,1-.619-.277.811.811,0,0,1-.2-.633,6.834,6.834,0,0,1,4.478-5.7,3.61,3.61,0,0,1-1.6-3,3.661,3.661,0,0,1,7.321,0,3.61,3.61,0,0,1-1.6,3,6.834,6.834,0,0,1,4.478,5.7.81.81,0,0,1-.2.633A.827.827,0,0,1,52.792,59.013Zm-11.32-.923H52.679A5.841,5.841,0,0,0,47.8,53.022h0a.511.511,0,0,1-.056-1,2.738,2.738,0,1,0-1.344,0,.512.512,0,0,1-.055,1A5.841,5.841,0,0,0,41.472,58.09Zm4.746-5.982h0Zm1.714,0h0Z" transform="translate(-40.535 -45.774)" fill="#3e3e3e"/>
</svg>
