<svg xmlns="http://www.w3.org/2000/svg" width="21.123" height="26.951" viewBox="0 0 21.123 26.951">
  <g id="Grupo_39" data-name="Grupo 39" transform="translate(-148.131 -44.226)">
    <g id="Grupo_37" data-name="Grupo 37" transform="translate(152.13 44.226)">
      <path id="Caminho_53" data-name="Caminho 53" d="M159.4,48.7a.558.558,0,0,1-.35-.995l2.534-2.028a.176.176,0,0,0,.06-.208.17.17,0,0,0-.172-.124h-6.933a.17.17,0,0,0-.172.124.175.175,0,0,0,.059.206l2.535,2.029a.559.559,0,1,1-.7.873l-2.534-2.028a1.3,1.3,0,0,1,.811-2.322h6.934a1.3,1.3,0,0,1,.81,2.322l-2.534,2.028a.556.556,0,0,1-.349.122Z" transform="translate(-151.412 -44.226)" fill="#e8465d"/>
      <path id="Caminho_54" data-name="Caminho 54" d="M160.905,61.6h-5.032c-2.961,0-4.236-2.419-4.236-4.924,0-3.48,2.306-7.886,4.935-9.429a.559.559,0,1,1,.566.965c-2.294,1.346-4.383,5.38-4.383,8.464,0,1.805.83,3.914,3.168,3.914h5.032c2.692,0,2.983-2.737,2.983-3.914,0-3.084-2.318-7.118-4.611-8.464a.559.559,0,1,1,.566-.965c2.629,1.543,5.163,5.949,5.163,9.429C165.055,59.777,163.435,61.6,160.905,61.6Z" transform="translate(-151.637 -43.813)" fill="#e8465d"/>
    </g>
    <path id="Caminho_55" data-name="Caminho 55" d="M168.814,59.12h-2.02a4.341,4.341,0,0,0-6.522,0h-4.22a1.846,1.846,0,0,0-1.736,1.669l-3.834-1.452a1.747,1.747,0,0,0-2.258,1.282,2.286,2.286,0,0,0-.092.641v.033a2.106,2.106,0,0,0,.827,1.718l7.639,5.52a3.865,3.865,0,0,0,3.394.6l6.679-2h2.143a.473.473,0,0,0,.44-.5V59.619A.474.474,0,0,0,168.814,59.12Zm-.44,7.017h-1.76a.429.429,0,0,0-.113.016l-6.733,2.013a3.081,3.081,0,0,1-2.7-.478l-7.638-5.52a1.07,1.07,0,0,1-.42-.875v-.033a.976.976,0,0,1,.9-1.029.809.809,0,0,1,.289.054l4.223,1.6a1.77,1.77,0,0,0,1.626,1.234h4.4a.5.5,0,0,0,0-1h-4.4a.907.907,0,0,1-.853-.752h0a1.019,1.019,0,0,1,.638-1.216.812.812,0,0,1,.216-.03h4.4a.415.415,0,0,0,.311-.147l.044-.05a3.541,3.541,0,0,1,5.45,0l.044.05a.415.415,0,0,0,.311.147h1.76Z" transform="translate(0 1.886)" fill="#3c2e88"/>
    <g id="Grupo_38" data-name="Grupo 38" transform="translate(161.418 57.069)">
      <path id="Caminho_56" data-name="Caminho 56" d="M163.931,55.486c0,3.1-1.622,4.924-4.15,4.924,0,0,.607-1.042.846-1.1,1.955-.486,2.185-2.773,2.185-3.822Z" transform="translate(-159.781 -55.486)" fill="#e8465d"/>
    </g>
    <path id="Caminho_39" data-name="Caminho 39" d="M157.75,53.546a.93.93,0,1,1,.93-.93.465.465,0,0,0,.93,0,1.862,1.862,0,0,0-1.395-1.8v-.524a.465.465,0,0,0-.93-.047.323.323,0,0,0,0,.047v.524a1.859,1.859,0,0,0,.465,3.66.93.93,0,1,1-.93.93.465.465,0,0,0-.93-.047.323.323,0,0,0,0,.047,1.862,1.862,0,0,0,1.395,1.8v.524a.465.465,0,0,0,.93.046v-.569a1.859,1.859,0,0,0-.465-3.66Z" transform="translate(1.09 0.784)" fill="#3c2e88"/>
  </g>
</svg>
