<svg xmlns="http://www.w3.org/2000/svg" width="13.712" height="12.841" viewBox="0 0 13.712 12.841">
  <g id="_19-Cash_back" data-name="19-Cash back" transform="translate(-4 -36)">
    <g id="filled" transform="translate(4 36)">
      <path id="Caminho_40" data-name="Caminho 40" d="M151.374,42.747A3.374,3.374,0,1,0,148,39.374,3.374,3.374,0,0,0,151.374,42.747Zm0-6.094a2.721,2.721,0,1,1-2.721,2.721A2.721,2.721,0,0,1,151.374,36.653Z" transform="translate(-144.082 -36)" fill="#3e3e3e"/>
      <path id="Caminho_41" data-name="Caminho 41" d="M229.415,71.482h-.653a.109.109,0,0,1-.109-.109.326.326,0,1,0-.653,0,.763.763,0,0,0,.762.762h.109v.544a.326.326,0,0,0,.653,0v-.55a.979.979,0,0,0-.109-1.953h-.435a.326.326,0,1,1,0-.653h.653a.109.109,0,0,1,.109.109.326.326,0,1,0,.653,0,.763.763,0,0,0-.762-.762h-.109v-.544a.326.326,0,1,0-.653,0v.55a.979.979,0,0,0,.109,1.953h.435a.326.326,0,0,1,0,.653Z" transform="translate(-221.906 -67.129)" fill="#3e3e3e"/>
      <path id="Caminho_42" data-name="Caminho 42" d="M15.355,309.34c-.111-.055-1.1-.524-1.683.061l-.06.063a1.239,1.239,0,0,0-1.246.221,5.828,5.828,0,0,0-.843,1.222l-.6.12-1.6-1.068h1.1a1.514,1.514,0,0,0,1.435-.833,1.934,1.934,0,0,0,.2-.8.326.326,0,0,0-.326-.326h-7.4a.326.326,0,1,0,0,.653h7.017a1.158,1.158,0,0,1-.08.2.861.861,0,0,1-.842.456H8.244a.328.328,0,0,0-.181.6l2.612,1.741a.326.326,0,0,0,.245.048l2.177-.435a.327.327,0,0,0,.228-.174,7,7,0,0,1,.652-1.043l0-.005a2.221,2.221,0,0,1,.153-.173.686.686,0,0,1,.62-.051l-1.076,2.152-3.262.816-3.843-.854a.326.326,0,0,0-.071-.008H4.326a.326.326,0,1,0,0,.653H6.467l3.883.863a.327.327,0,0,0,.15,0l3.482-.871a.327.327,0,0,0,.213-.171l1.306-2.612A.328.328,0,0,0,15.355,309.34Zm-2.54,1.308-.435.087a3.668,3.668,0,0,1,.447-.589.444.444,0,0,1,.34-.1C13.016,310.285,12.89,310.509,12.815,310.649Z" transform="translate(-4 -300.6)" fill="#3e3e3e"/>
      <path id="Caminho_43" data-name="Caminho 43" d="M422.3,165.4a.326.326,0,0,0-.462,0l-.313.313v-1.388a.326.326,0,1,0-.653,0v1.388l-.313-.313a.326.326,0,1,0-.462.462l.871.871a.326.326,0,0,0,.462,0l.871-.871A.326.326,0,0,0,422.3,165.4Z" transform="translate(-408.682 -160.518)" fill="#3e3e3e"/>
      <path id="Caminho_45" data-name="Caminho 45" d="M36.966,166.734a.326.326,0,0,0,.462,0l.871-.871a.326.326,0,1,0-.462-.462l-.313.313v-1.388a.326.326,0,0,0-.653,0v1.388l-.313-.313a.326.326,0,0,0-.462.462Z" transform="translate(-35.129 -160.518)" fill="#3e3e3e"/>
    </g>
  </g>
</svg>
