<svg xmlns="http://www.w3.org/2000/svg" width="18.862" height="12.994" viewBox="0 0 18.862 12.994">
  <g id="_19-Cash_back" data-name="19-Cash back" transform="translate(-3.918)">
    <g id="filled" transform="translate(3.918)">
      <path id="Caminho_40" data-name="Caminho 40" d="M154.5,48.994a6.5,6.5,0,1,0-6.5-6.5A6.5,6.5,0,0,0,154.5,48.994Zm0-11.736a5.239,5.239,0,1,1-5.239,5.239A5.239,5.239,0,0,1,154.5,37.257Z" transform="translate(-148 -36)" fill="#3e3e3e"/>
      <path id="Caminho_41" data-name="Caminho 41" d="M230.725,74.706h-1.257a.21.21,0,0,1-.21-.21.629.629,0,1,0-1.257,0,1.469,1.469,0,0,0,1.467,1.467h.21v1.048a.629.629,0,0,0,1.257,0v-1.06a1.886,1.886,0,0,0-.21-3.76h-.838a.629.629,0,1,1,0-1.257h1.257a.21.21,0,0,1,.21.21.629.629,0,1,0,1.257,0,1.469,1.469,0,0,0-1.467-1.467h-.21V68.629a.629.629,0,1,0-1.257,0v1.06a1.886,1.886,0,0,0,.21,3.76h.838a.629.629,0,1,1,0,1.257Z" transform="translate(-223.808 -66.323)" fill="#3e3e3e"/>
      <path id="Caminho_43" data-name="Caminho 43" d="M4.427,2.7a.629.629,0,0,0-.889,0l-.6.6V.629a.629.629,0,0,0-1.257,0V3.3l-.6-.6a.629.629,0,1,0-.889.889L1.861,5.265a.629.629,0,0,0,.889,0L4.427,3.588A.629.629,0,0,0,4.427,2.7Z" transform="translate(18.862 12.155) rotate(180)" fill="#3e3e3e"/>
    </g>
  </g>
</svg>
