<svg xmlns="http://www.w3.org/2000/svg" width="15.376" height="17.756" viewBox="0 0 15.376 17.756">
  <g id="Grupo_49" data-name="Grupo 49" transform="translate(-279.437 -4.978)">
    <path id="Caminho_70" data-name="Caminho 70" d="M292.645,31.038h-11.04a2.171,2.171,0,0,1-2.168-2.168V22.423a2.171,2.171,0,0,1,2.168-2.168h11.04a2.171,2.171,0,0,1,2.168,2.168V28.87A2.171,2.171,0,0,1,292.645,31.038Zm-11.04-9.414a.8.8,0,0,0-.8.8V28.87a.8.8,0,0,0,.8.8h11.04a.8.8,0,0,0,.8-.8V22.423a.8.8,0,0,0-.8-.8Z" transform="translate(0 -8.304)" fill="#3c2e88"/>
    <path id="Caminho_71" data-name="Caminho 71" d="M293.486,16.166a2.035,2.035,0,0,1-2.033-2.032V9.9a.663.663,0,0,0-1.326,0v4.236a2.033,2.033,0,0,1-4.065,0V9.619a4.729,4.729,0,0,1,9.457.034v4.48A2.035,2.035,0,0,1,293.486,16.166Zm-2.7-8.3A2.035,2.035,0,0,1,292.823,9.9v4.236a.663.663,0,0,0,1.326,0V9.653a3.309,3.309,0,0,0-3.305-3.305,3.389,3.389,0,0,0-3.413,3.272v4.514a.663.663,0,0,0,1.327,0V9.9A2.035,2.035,0,0,1,290.791,7.864Z" transform="translate(-3.601)" fill="#e8465d"/>
    <rect id="Retângulo_50" data-name="Retângulo 50" width="7.838" height="1.369" transform="translate(281.891 11.951)" fill="#3c2e88"/>
  </g>
</svg>
