<svg xmlns="http://www.w3.org/2000/svg" width="13.604" height="12.556" viewBox="0 0 13.604 12.556">
  <g id="Layer_2" data-name="Layer 2" transform="translate(0)">
    <path id="Caminho_72" data-name="Caminho 72" d="M378.673,34.318h-7.009A3.27,3.27,0,0,1,368.8,32.67a3.216,3.216,0,0,1,0-3.253l3.52-6.021a3.3,3.3,0,0,1,5.691,0l3.51,6.021h0a3.216,3.216,0,0,1,0,3.253A3.27,3.27,0,0,1,378.673,34.318Zm-3.5-11.507a2.217,2.217,0,0,0-1.941,1.109l-3.51,6.026a2.17,2.17,0,0,0,0,2.2,2.213,2.213,0,0,0,1.946,1.125h7.009a2.213,2.213,0,0,0,1.951-1.125,2.17,2.17,0,0,0,0-2.2l-3.515-6.026A2.217,2.217,0,0,0,375.168,22.81Z" transform="translate(-368.361 -21.762)" fill="#3e3e3e"/>
    <path id="Caminho_73" data-name="Caminho 73" d="M381.107,29.766a.282.282,0,0,0-.23.115.272.272,0,0,0-.052.251l.282,1.14.282-1.14a.272.272,0,0,0-.052-.251A.282.282,0,0,0,381.107,29.766Z" transform="translate(-374.3 -25.579)" fill="none"/>
    <path id="Caminho_74" data-name="Caminho 74" d="M381.209,28.307a1.339,1.339,0,0,0-1.882-.21,1.307,1.307,0,0,0-.451,1.356l.764,3.165a.523.523,0,0,0,1.015,0l.79-3.17A1.307,1.307,0,0,0,381.209,28.307Zm-.562,1.062-.482,2.112-.482-2.112a.539.539,0,0,1,.089-.465.465.465,0,0,1,.687-.106.51.51,0,0,1,.1.106A.539.539,0,0,1,380.647,29.369Z" transform="translate(-373.355 -24.643)" fill="#3e3e3e"/>
    <circle id="Elipse_2" data-name="Elipse 2" cx="0.785" cy="0.785" r="0.785" transform="translate(6.023 8.894)" fill="#3e3e3e"/>
  </g>
</svg>
